<svg width="22" height="20" viewBox="0 0 22 20" fill="none" xmlns="http://www.w3.org/2000/svg">
<path d="M20.0196 10.2114C20.0196 9.58745 19.969 8.96007 19.8611 8.34619H11.2026V11.8811H16.1609C15.9552 13.0211 15.294 14.0297 14.326 14.6705V16.9641H17.2841C19.0212 15.3654 20.0196 13.0043 20.0196 10.2114Z" fill="#4285F4"/>
<path d="M11.2055 19.1803C13.6813 19.1803 15.7691 18.3674 17.2904 16.9643L14.3323 14.6706C13.5093 15.2306 12.4468 15.5476 11.2089 15.5476C8.81406 15.5476 6.78352 13.932 6.05496 11.7598H3.00241V14.1242C4.56073 17.224 7.7347 19.1803 11.2055 19.1803Z" fill="#34A853"/>
<path d="M6.04955 11.76C5.66503 10.6199 5.66503 9.38538 6.04955 8.24532V5.88086H3.00037C1.6984 8.47468 1.6984 11.5306 3.00037 14.1244L6.04955 11.76Z" fill="#FBBC04"/>
<path d="M11.2055 4.45387C12.5142 4.43364 13.7791 4.92609 14.7269 5.83005L17.3477 3.20924C15.6882 1.65093 13.4856 0.794191 11.2055 0.821175C7.7347 0.821175 4.56073 2.7775 3.00241 5.88064L6.05158 8.2451C6.77677 6.06953 8.81068 4.45387 11.2055 4.45387Z" fill="#EA4335"/>
</svg>
