<svg width="128" height="49" viewBox="0 0 128 49" fill="none" xmlns="http://www.w3.org/2000/svg">
<path d="M2.9043 39.2V9.75928H21.7648V14.23H8.23754V22.2227H20.471V26.6934H8.23754V39.2H2.9043ZM31.5976 9.75928V39.2H26.3937V9.75928H31.5976ZM43.3027 39.6456C41.9035 39.6456 40.6433 39.3965 39.522 38.8981C38.4103 38.3902 37.5286 37.6427 36.8769 36.6556C36.2348 35.6685 35.9138 34.4514 35.9138 33.0042C35.9138 31.7584 36.1438 30.7281 36.6038 29.9135C37.0638 29.0989 37.6916 28.4472 38.487 27.9585C39.2824 27.4697 40.1785 27.1007 41.1752 26.8516C42.1814 26.5928 43.2213 26.406 44.2947 26.2909C45.5884 26.1568 46.6378 26.037 47.4428 25.9315C48.2478 25.8166 48.8325 25.6441 49.1967 25.414C49.5704 25.1744 49.7573 24.8055 49.7573 24.3072V24.2209C49.7573 23.1379 49.4362 22.2994 48.7941 21.7052C48.152 21.111 47.2272 20.8139 46.0197 20.8139C44.7451 20.8139 43.734 21.0919 42.9865 21.6477C42.2485 22.2036 41.7502 22.86 41.4914 23.6171L36.6325 22.9271C37.0159 21.5854 37.6484 20.4641 38.5301 19.5633C39.4118 18.6528 40.49 17.9724 41.7646 17.522C43.0392 17.0619 44.4479 16.8319 45.991 16.8319C47.0547 16.8319 48.1137 16.9565 49.1679 17.2057C50.2221 17.4548 51.1852 17.867 52.0574 18.442C52.9294 19.0074 53.6291 19.7789 54.1562 20.7564C54.6929 21.7339 54.9612 22.9558 54.9612 24.4221V39.2H49.9585V36.1668H49.7861C49.4698 36.7802 49.0242 37.3552 48.4491 37.8919C47.8837 38.419 47.1697 38.8454 46.3072 39.1713C45.4543 39.4876 44.4527 39.6456 43.3027 39.6456ZM44.654 35.8218C45.6986 35.8218 46.6043 35.6158 47.371 35.2037C48.1377 34.782 48.727 34.2262 49.1391 33.5361C49.5608 32.8461 49.7717 32.0938 49.7717 31.2792V28.6773C49.6088 28.8114 49.3308 28.936 48.9379 29.051C48.5545 29.166 48.1233 29.2667 47.6441 29.3529C47.1649 29.4392 46.6905 29.5158 46.2209 29.5829C45.7513 29.65 45.344 29.7075 44.999 29.7554C44.2227 29.8608 43.528 30.0333 42.9146 30.2729C42.3012 30.5125 41.8172 30.8479 41.4627 31.2792C41.1081 31.7008 40.9308 32.2471 40.9308 32.918C40.9308 33.8763 41.2806 34.5999 41.9802 35.0886C42.6798 35.5774 43.5711 35.8218 44.654 35.8218ZM64.4487 17.1195L68.9054 25.2703L73.4333 17.1195H78.9392L72.2836 28.1597L79.0545 39.2H73.5774L68.9054 31.2504L64.2764 39.2H58.7563L65.4838 28.1597L58.9288 17.1195H64.4487Z" fill="white"/>
<path d="M99.1482 39.6455C97.7493 39.6455 96.4887 39.3963 95.3678 38.898C94.2559 38.3901 93.3745 37.6426 92.7225 36.6555C92.0807 35.6684 91.7598 34.4513 91.7598 33.0041C91.7598 31.7582 91.9897 30.728 92.4496 29.9134C92.9095 29.0988 93.5372 28.4471 94.3327 27.9584C95.1283 27.4696 96.0244 27.1006 97.021 26.8515C98.0273 26.5927 99.0668 26.4059 100.14 26.2908C101.434 26.1567 102.483 26.0369 103.289 25.9314C104.094 25.8165 104.678 25.644 105.042 25.414C105.416 25.1743 105.603 24.8054 105.603 24.3071V24.2208C105.603 23.1379 105.282 22.2993 104.64 21.7051C103.998 21.1109 103.073 20.8139 101.865 20.8139C100.591 20.8139 99.5799 21.0918 98.8324 21.6476C98.0939 22.2035 97.5956 22.8599 97.3368 23.617L92.4784 22.927C92.8615 21.5853 93.4943 20.4641 94.3757 19.5632C95.2577 18.6527 96.3357 17.9723 97.6103 17.5219C98.8849 17.0619 100.293 16.8319 101.836 16.8319C102.9 16.8319 103.959 16.9564 105.013 17.2056C106.068 17.4548 107.031 17.8669 107.903 18.4419C108.775 19.0073 109.475 19.7788 110.002 20.7563C110.539 21.7338 110.807 22.9558 110.807 24.422V39.1999H105.804V36.1667H105.632C105.315 36.7801 104.87 37.3551 104.295 37.8918C103.729 38.4188 103.016 38.8453 102.153 39.1711C101.3 39.4874 100.299 39.6455 99.1482 39.6455ZM100.5 35.8217C101.544 35.8217 102.45 35.6157 103.217 35.2035C103.983 34.7819 104.573 34.226 104.985 33.536C105.407 32.846 105.617 32.0937 105.617 31.2791V28.6771C105.454 28.8113 105.176 28.9359 104.783 29.0509C104.4 29.1659 103.969 29.2666 103.49 29.3528C103.011 29.4391 102.536 29.5157 102.066 29.5828C101.597 29.6498 101.19 29.7074 100.845 29.7553C100.069 29.8607 99.3736 30.0332 98.76 30.2728C98.1471 30.5124 97.6628 30.8478 97.3086 31.2791C96.9538 31.7007 96.7763 32.247 96.7763 32.9178C96.7763 33.8762 97.1261 34.5998 97.8262 35.0885C98.5256 35.5773 99.4166 35.8217 100.5 35.8217ZM116.039 39.1999V17.1194H121.243V39.1999H116.039ZM118.656 13.9856C117.832 13.9856 117.123 13.7124 116.528 13.1662C115.934 12.6103 115.637 11.9442 115.637 11.168C115.637 10.3821 115.934 9.71606 116.528 9.16983C117.123 8.61398 117.832 8.33606 118.656 8.33606C119.489 8.33606 120.199 8.61398 120.783 9.16983C121.377 9.71606 121.675 10.3821 121.675 11.168C121.675 11.9442 121.377 12.6103 120.783 13.1662C120.199 13.7124 119.489 13.9856 118.656 13.9856Z" fill="white"/>
<path d="M83.9126 33.0042C83.9126 32.6233 84.0503 32.2981 84.3257 32.0286C84.607 31.759 84.938 31.6243 85.3189 31.6243C85.6997 31.6243 86.0308 31.759 86.312 32.0286C86.5874 32.2981 86.7251 32.6233 86.7251 33.0042C86.7251 33.3792 86.5874 33.7043 86.312 33.9797C86.0366 34.2551 85.7056 34.3928 85.3189 34.3928C84.9321 34.3928 84.6011 34.2551 84.3257 33.9797C84.0503 33.7043 83.9126 33.3792 83.9126 33.0042Z" fill="white"/>
</svg>
