<svg width="21" height="21" viewBox="0 0 21 21" fill="none" xmlns="http://www.w3.org/2000/svg">
<path d="M14.3391 20.3438H6.66094C5.88984 20.3438 5.25 19.7203 5.25 18.9328V2.06719C5.25 1.29609 5.88984 0.65625 6.66094 0.65625H14.3391C15.1102 0.65625 15.75 1.27969 15.75 2.06719V18.9492C15.75 19.7203 15.1102 20.3438 14.3391 20.3438Z" fill="#424242"/>
<path d="M14.2357 19.7056H6.55101C6.19828 19.7056 5.91281 19.4201 5.91281 19.0674V3.22384C5.91281 2.87275 6.19828 2.58728 6.54937 2.58728H14.449C14.8017 2.58728 15.0872 2.87275 15.0872 3.22548V18.964C15.0872 19.1166 14.8575 19.7056 14.2357 19.7056Z" fill="black"/>
<path d="M12.0832 1.90147H8.9332C8.81836 1.90147 8.73633 1.80303 8.73633 1.7046C8.73633 1.60616 8.83477 1.50772 8.9332 1.50772H12.0668C12.1816 1.50772 12.2637 1.60616 12.2637 1.7046C12.2637 1.80303 12.1816 1.90147 12.0832 1.90147Z" fill="#212121"/>
<path d="M14.3391 0.984375C14.9363 0.984375 15.4219 1.47 15.4219 2.06719V18.9492C15.4219 19.5366 14.9363 20.0156 14.3391 20.0156H6.66094C6.06375 20.0156 5.57812 19.53 5.57812 18.9328V2.06719C5.57812 1.47984 6.07359 0.984375 6.66094 0.984375H14.3391ZM14.3391 0.65625H6.66094C5.88984 0.65625 5.25 1.29609 5.25 2.06719V18.9328C5.25 19.7203 5.88984 20.3438 6.66094 20.3438H14.3391C15.1102 20.3438 15.75 19.7203 15.75 18.9492V2.06719C15.75 1.27969 15.1102 0.65625 14.3391 0.65625Z" fill="#757575"/>
<path d="M7.93242 4.91531H6.88899C6.76922 4.91531 6.67242 4.81852 6.67242 4.69875V3.65531C6.67242 3.53555 6.76922 3.43875 6.88899 3.43875H7.93242C8.05219 3.43875 8.14899 3.53555 8.14899 3.65531V4.69875C8.14899 4.81852 8.05219 4.91531 7.93242 4.91531Z" fill="#EAB56E"/>
<path d="M9.9914 4.91531H8.94796C8.8282 4.91531 8.7314 4.81852 8.7314 4.69875V3.65531C8.7314 3.53555 8.8282 3.43875 8.94796 3.43875H9.9914C10.1112 3.43875 10.208 3.53555 10.208 3.65531V4.69875C10.208 4.81852 10.1112 4.91531 9.9914 4.91531Z" fill="#FB8C00"/>
<path d="M12.0504 4.91531H11.0086C10.8888 4.91531 10.792 4.81852 10.792 4.69875V3.65531C10.792 3.53555 10.8888 3.43875 11.0086 3.43875H12.052C12.1718 3.43875 12.2686 3.53555 12.2686 3.65531V4.69875C12.2686 4.81852 12.1718 4.91531 12.0504 4.91531Z" fill="#FF80AB"/>
<path d="M14.111 4.91531H13.0676C12.9478 4.91531 12.851 4.81852 12.851 4.69875V3.65531C12.851 3.53555 12.9478 3.43875 13.0676 3.43875H14.111C14.2308 3.43875 14.3276 3.53555 14.3276 3.65531V4.69875C14.3276 4.81852 14.2308 4.91531 14.111 4.91531Z" fill="#0288D1"/>
<path d="M7.93242 7.23843H6.88899C6.76922 7.23843 6.67242 7.14164 6.67242 7.02187V5.97843C6.67242 5.85867 6.76922 5.76187 6.88899 5.76187H7.93242C8.05219 5.76187 8.14899 5.85867 8.14899 5.97843V7.02187C8.14899 7.14164 8.05219 7.23843 7.93242 7.23843Z" fill="#00BFA5"/>
<path d="M9.9914 7.23843H8.94796C8.8282 7.23843 8.7314 7.14164 8.7314 7.02187V5.97843C8.7314 5.85867 8.8282 5.76187 8.94796 5.76187H9.9914C10.1112 5.76187 10.208 5.85867 10.208 5.97843V7.02187C10.208 7.14164 10.1112 7.23843 9.9914 7.23843Z" fill="#81D4FA"/>
<path d="M12.0504 7.23843H11.0086C10.8888 7.23843 10.792 7.14164 10.792 7.02187V5.97843C10.792 5.85867 10.8888 5.76187 11.0086 5.76187H12.052C12.1718 5.76187 12.2686 5.85867 12.2686 5.97843V7.02187C12.2686 7.14164 12.1718 7.23843 12.0504 7.23843Z" fill="#FB8C00"/>
<path d="M14.111 7.23843H13.0676C12.9478 7.23843 12.851 7.14164 12.851 7.02187V5.97843C12.851 5.85867 12.9478 5.76187 13.0676 5.76187H14.111C14.2308 5.76187 14.3276 5.85867 14.3276 5.97843V7.02187C14.3276 7.14164 14.2308 7.23843 14.111 7.23843Z" fill="#EAB56E"/>
<path d="M7.93242 9.56155H6.88899C6.76922 9.56155 6.67242 9.46476 6.67242 9.34499V8.30155C6.67242 8.18179 6.76922 8.08499 6.88899 8.08499H7.93242C8.05219 8.08499 8.14899 8.18179 8.14899 8.30155V9.34499C8.14899 9.46476 8.05219 9.56155 7.93242 9.56155Z" fill="#FB8C00"/>
<path d="M9.9914 9.56155H8.94796C8.8282 9.56155 8.7314 9.46476 8.7314 9.34499V8.30155C8.7314 8.18179 8.8282 8.08499 8.94796 8.08499H9.9914C10.1112 8.08499 10.208 8.18179 10.208 8.30155V9.34499C10.208 9.46476 10.1112 9.56155 9.9914 9.56155Z" fill="#FF80AB"/>
<path d="M12.0504 9.56155H11.0086C10.8888 9.56155 10.792 9.46476 10.792 9.34499V8.30155C10.792 8.18179 10.8888 8.08499 11.0086 8.08499H12.052C12.1718 8.08499 12.2686 8.18179 12.2686 8.30155V9.34499C12.2686 9.46476 12.1718 9.56155 12.0504 9.56155Z" fill="#00BFA5"/>
<path d="M14.111 9.56155H13.0676C12.9478 9.56155 12.851 9.46476 12.851 9.34499V8.30155C12.851 8.18179 12.9478 8.08499 13.0676 8.08499H14.111C14.2308 8.08499 14.3276 8.18179 14.3276 8.30155V9.34499C14.3276 9.46476 14.2308 9.56155 14.111 9.56155ZM7.93242 11.8847H6.88899C6.76922 11.8847 6.67242 11.7879 6.67242 11.6681V10.6247C6.67242 10.5049 6.76922 10.4081 6.88899 10.4081H7.93242C8.05219 10.4081 8.14899 10.5049 8.14899 10.6247V11.6681C8.14899 11.7879 8.05219 11.8847 7.93242 11.8847Z" fill="#0288D1"/>
<path d="M9.99141 11.8847H8.94797C8.82821 11.8847 8.73141 11.7879 8.73141 11.6681V10.6247C8.73141 10.5049 8.82821 10.4081 8.94797 10.4081H9.99141C10.1112 10.4081 10.208 10.5049 10.208 10.6247V11.6681C10.208 11.7879 10.1112 11.8847 9.99141 11.8847ZM7.93242 18.854H6.88899C6.76922 18.854 6.67242 18.7573 6.67242 18.6375V17.594C6.67242 17.4743 6.76922 17.3775 6.88899 17.3775H7.93242C8.05219 17.3775 8.14899 17.4743 8.14899 17.594V18.6375C8.14899 18.7556 8.05219 18.854 7.93242 18.854Z" fill="#81D4FA"/>
<path d="M9.9914 18.8541H8.94796C8.8282 18.8541 8.7314 18.7573 8.7314 18.6375V17.5941C8.7314 17.4743 8.8282 17.3775 8.94796 17.3775H9.9914C10.1112 17.3775 10.208 17.4743 10.208 17.5941V18.6375C10.208 18.7556 10.1112 18.8541 9.9914 18.8541Z" fill="#0288D1"/>
<path d="M12.0504 18.8541H11.0086C10.8888 18.8541 10.792 18.7573 10.792 18.6375V17.5941C10.792 17.4743 10.8888 17.3775 11.0086 17.3775H12.052C12.1718 17.3775 12.2686 17.4743 12.2686 17.5941V18.6375C12.2686 18.7556 12.1718 18.8541 12.0504 18.8541Z" fill="#00BFA5"/>
<path d="M14.111 18.8541H13.0676C12.9478 18.8541 12.851 18.7573 12.851 18.6375V17.5941C12.851 17.4743 12.9478 17.3775 13.0676 17.3775H14.111C14.2308 17.3775 14.3276 17.4743 14.3276 17.5941V18.6375C14.3276 18.7556 14.2308 18.8541 14.111 18.8541Z" fill="#FF80AB"/>
</svg>
